<svg xmlns="http://www.w3.org/2000/svg" viewBox="0 0 20 20" fill="none">
  <path d="M4.5 4H15.5C16.3284 4 17 4.67157 17 5.5V14.5C17 15.3284 16.3284 16 15.5 16H4.5C3.67157 16 3 15.3284 3 14.5V5.5C3 4.67157 3.67157 4 4.5 4Z" stroke="#000" stroke-width="1.6" stroke-linejoin="round"/>
  <path d="M6 12L8.25 9.75C8.6402 9.3598 9.27286 9.3598 9.66306 9.75L10.25 10.3369C10.6402 10.7271 11.2729 10.7271 11.6631 10.3369L14 8" stroke="#000" stroke-width="1.6" stroke-linecap="round" stroke-linejoin="round"/>
  <path d="M13.25 6.75C13.6642 6.75 14 6.41421 14 6C14 5.58579 13.6642 5.25 13.25 5.25C12.8358 5.25 12.5 5.58579 12.5 6C12.5 6.41421 12.8358 6.75 13.25 6.75Z" fill="#000"/>
  <path d="M8 2.75L8.35 3.65L9.25 4L8.35 4.35L8 5.25L7.65 4.35L6.75 4L7.65 3.65L8 2.75Z" stroke="#000" stroke-width="1.2" stroke-linejoin="round"/>
</svg>
