<svg xmlns="http://www.w3.org/2000/svg" viewBox="0 0 20 20" fill="none">
  <path d="M7.25 4.25L8.75 5.5C9.47686 6.10572 10.5231 6.10572 11.25 5.5L12.75 4.25L15.3 5.35C15.8626 5.59279 16.25 6.14653 16.25 6.7593V9L14 8V16.25C14 16.6642 13.6642 17 13.25 17H6.75C6.33579 17 6 16.6642 6 16.25V8L3.75 9V6.7593C3.75 6.14653 4.13736 5.59279 4.7 5.35L7.25 4.25Z" stroke="#000" stroke-width="1.6" stroke-linecap="round" stroke-linejoin="round"/>
  <path d="M8.5 3.5C8.5 4.32843 9.17157 5 10 5C10.8284 5 11.5 4.32843 11.5 3.5C11.5 2.67157 10.8284 2 10 2C9.17157 2 8.5 2.67157 8.5 3.5Z" stroke="#000" stroke-width="1.6" stroke-linecap="round" stroke-linejoin="round"/>
</svg>
