<svg xmlns="http://www.w3.org/2000/svg" viewBox="0 0 20 20" fill="none">
  <path d="M3 11C3.55228 11 4 10.5523 4 10V8C4 7.44772 3.55228 7 3 7C2.44772 7 2 7.44772 2 8V10C2 10.5523 2.44772 11 3 11Z" fill="#000"/>
  <path d="M6.5 13.5C7.05228 13.5 7.5 13.0523 7.5 12.5V5.5C7.5 4.94772 7.05228 4.5 6.5 4.5C5.94772 4.5 5.5 4.94772 5.5 5.5V12.5C5.5 13.0523 5.94772 13.5 6.5 13.5Z" fill="#000"/>
  <path d="M10 16C10.5523 16 11 15.5523 11 15V3C11 2.44772 10.5523 2 10 2C9.44772 2 9 2.44772 9 3V15C9 15.5523 9.44772 16 10 16Z" fill="#000"/>
  <path d="M13.5 13.5C14.0523 13.5 14.5 13.0523 14.5 12.5V5.5C14.5 4.94772 14.0523 4.5 13.5 4.5C12.9477 4.5 12.5 4.94772 12.5 5.5V12.5C12.5 13.0523 12.9477 13.5 13.5 13.5Z" fill="#000"/>
  <path d="M17 11C17.5523 11 18 10.5523 18 10V8C18 7.44772 17.5523 7 17 7C16.4477 7 16 7.44772 16 8V10C16 10.5523 16.4477 11 17 11Z" fill="#000"/>
</svg>
