<svg xmlns="http://www.w3.org/2000/svg" viewBox="0 0 20 20" fill="none">
  <path d="M5.75 4.25H8.25C9.2165 4.25 10 5.0335 10 6C10 6.9665 10.7835 7.75 11.75 7.75H14.25" stroke="#000" stroke-width="1.6" stroke-linecap="round" stroke-linejoin="round"/>
  <path d="M5.75 15.75H8.25C9.2165 15.75 10 14.9665 10 14C10 13.0335 10.7835 12.25 11.75 12.25H14.25" stroke="#000" stroke-width="1.6" stroke-linecap="round" stroke-linejoin="round"/>
  <path d="M4 5.75C4.9665 5.75 5.75 4.9665 5.75 4C5.75 3.0335 4.9665 2.25 4 2.25C3.0335 2.25 2.25 3.0335 2.25 4C2.25 4.9665 3.0335 5.75 4 5.75Z" stroke="#000" stroke-width="1.6"/>
  <path d="M4 17.75C4.9665 17.75 5.75 16.9665 5.75 16C5.75 15.0335 4.9665 14.25 4 14.25C3.0335 14.25 2.25 15.0335 2.25 16C2.25 16.9665 3.0335 17.75 4 17.75Z" stroke="#000" stroke-width="1.6"/>
  <path d="M16 11.75C16.9665 11.75 17.75 10.9665 17.75 10C17.75 9.0335 16.9665 8.25 16 8.25C15.0335 8.25 14.25 9.0335 14.25 10C14.25 10.9665 15.0335 11.75 16 11.75Z" stroke="#000" stroke-width="1.6"/>
</svg>
