<svg xmlns="http://www.w3.org/2000/svg" viewBox="0 0 20 20" fill="none">
  <path d="M3 5.5C3 4.67157 3.67157 4 4.5 4H8.5C9.32843 4 10 4.67157 10 5.5V8.5C10 9.32843 9.32843 10 8.5 10H4.5C3.67157 10 3 9.32843 3 8.5V5.5Z" stroke="#000" stroke-width="1.6"/>
  <path d="M10 5.5C10 4.67157 10.6716 4 11.5 4H15.5C16.3284 4 17 4.67157 17 5.5V8.5C17 9.32843 16.3284 10 15.5 10H11.5C10.6716 10 10 9.32843 10 8.5V5.5Z" stroke="#000" stroke-width="1.6"/>
  <path d="M3 11.5C3 10.6716 3.67157 10 4.5 10H8.5C9.32843 10 10 10.6716 10 11.5V14.5C10 15.3284 9.32843 16 8.5 16H4.5C3.67157 16 3 15.3284 3 14.5V11.5Z" stroke="#000" stroke-width="1.6"/>
  <path d="M10 11.5C10 10.6716 10.6716 10 11.5 10H15.5C16.3284 10 17 10.6716 17 11.5V14.5C17 15.3284 16.3284 16 15.5 16H11.5C10.6716 16 10 15.3284 10 14.5V11.5Z" stroke="#000" stroke-width="1.6"/>
</svg>
