<svg xmlns="http://www.w3.org/2000/svg" viewBox="0 0 20 20" fill="none">
  <path d="M13.75 4.25C14.7165 4.25 15.5 5.0335 15.5 6C15.5 6.9665 14.7165 7.75 13.75 7.75C12.7835 7.75 12 8.5335 12 9.5C12 10.4665 12.7835 11.25 13.75 11.25H14C15.5188 11.25 16.75 12.4812 16.75 14C16.75 15.5188 15.5188 16.75 14 16.75C12.4812 16.75 11.25 15.5188 11.25 14V13.25C11.25 11.7312 10.0188 10.5 8.5 10.5H8C5.92893 10.5 4.25 8.82107 4.25 6.75C4.25 4.67893 5.92893 3 8 3H13.75" stroke="#000" stroke-width="1.6" stroke-linecap="round" stroke-linejoin="round"/>
  <path d="M7.25 6.25C7.66421 6.25 8 5.91421 8 5.5C8 5.08579 7.66421 4.75 7.25 4.75C6.83579 4.75 6.5 5.08579 6.5 5.5C6.5 5.91421 6.83579 6.25 7.25 6.25Z" fill="#000"/>
  <path d="M10 5.75C10.4142 5.75 10.75 5.41421 10.75 5C10.75 4.58579 10.4142 4.25 10 4.25C9.58579 4.25 9.25 4.58579 9.25 5C9.25 5.41421 9.58579 5.75 10 5.75Z" fill="#000"/>
</svg>
