<?xml version="1.0" encoding="UTF-8"?>
<svg id="Layer_2" xmlns="http://www.w3.org/2000/svg" version="1.1" viewBox="0 0 400 79.95">
  <!-- Generator: Adobe Illustrator 30.1.0, SVG Export Plug-In . SVG Version: 2.1.1 Build 136)  -->
  <defs>
    <style>
      .st0 {
        fill: #262424;
      }
    </style>
  </defs>
  <path class="st0" d="M105.54,29.99v24.04c0,1.53-1.24,2.76-2.76,2.76h-3.52c-.1,0-.18-.08-.18-.18v-24.04c0-1.52,1.24-2.76,2.76-2.76h3.52c.1,0,.18.08.18.18ZM123.47,29.14c-4.39,0-6.97,2.07-8.4,3.94v-3.1c0-.1-.08-.18-.18-.18h-3.26c-1.52,0-2.76,1.24-2.76,2.76v24.04c0,.1.08.18.18.18h3.58c1.52,0,2.76-1.24,2.76-2.76v-12.06c0-4.33,2.38-6.91,6.35-6.91,3.68,0,5.54,2.3,5.54,6.81v14.74c0,.1.08.18.18.18h3.58c1.53,0,2.76-1.24,2.76-2.76v-13.54c0-7.21-3.76-11.34-10.32-11.34ZM204.82,29.99v24.04c0,1.52-1.23,2.76-2.76,2.76h-3.22c-.1,0-.18-.08-.18-.18v-3.45c-1.76,2.62-5.39,4.35-9.23,4.35-7.54,0-13.22-6.13-13.22-14.26s5.68-14.15,13.22-14.15c3.69,0,7.07,1.53,8.91,4.03v-.56c0-1.52,1.25-2.76,2.76-2.76h3.53c.11,0,.18.08.18.18ZM198.5,43.35c0-4.9-3.27-8.45-7.78-8.45s-7.79,3.55-7.79,8.45,3.28,8.4,7.79,8.4,7.78-3.53,7.78-8.4ZM222.44,29.14c-4.39,0-6.98,2.07-8.4,3.94v-3.1c0-.1-.08-.18-.18-.18h-3.27c-1.52,0-2.76,1.24-2.76,2.76v24.04c0,.1.08.18.18.18h3.58c1.53,0,2.76-1.24,2.76-2.76v-12.06c0-4.33,2.38-6.91,6.36-6.91,3.68,0,5.53,2.3,5.53,6.81v14.92h3.76c1.53,0,2.76-1.24,2.76-2.76v-13.54c0-7.21-3.76-11.34-10.31-11.34ZM105.79,19.32h-4.38c-1.52,0-2.76,1.25-2.76,2.76v4.38c0,.1.08.18.18.18h4.38c1.53,0,2.76-1.24,2.76-2.76v-4.38c0-.1-.08-.18-.18-.18ZM250.58,51.31s-.13.03-.13.03c-1.23.31-2.3.46-3.28.46-1.94,0-2.73-.61-2.73-2.11v-14.21c0-.1.08-.18.18-.18h5.78c.11,0,.18-.08.18-.18v-5.14c0-.1-.07-.18-.18-.18h-5.78c-.1,0-.18-.08-.18-.18v-6.8c0-.1-.07-.18-.18-.18h-3.52c-1.52,0-2.76,1.24-2.76,2.76v4.21c0,.1-.07.18-.18.18h-3.99c-.1,0-.18.08-.18.18v5.14c0,.1.08.18.18.18h3.99c.11,0,.18.08.18.18v15.23c0,4.3,2.64,6.58,7.66,6.58,1.48,0,3.34-.21,4.46-.42.12-.03.37-.08.5-.12.05,0,.09-.04.09-.09v-5.27s-.02-.1-.1-.09ZM357.81,19.5v34.53c0,1.52-1.23,2.76-2.76,2.76h-3.22c-.1,0-.18-.08-.18-.18v-3.44c-1.76,2.61-5.39,4.34-9.22,4.34-7.54,0-13.23-6.13-13.23-14.26s5.69-14.15,13.23-14.15c3.69,0,7.07,1.53,8.91,4.03v-11.05c0-1.52,1.24-2.76,2.76-2.76h3.52c.11,0,.18.08.18.18ZM351.5,43.35c0-4.9-3.27-8.45-7.79-8.45s-7.78,3.55-7.78,8.45,3.27,8.4,7.78,8.4,7.79-3.53,7.79-8.4ZM368.06,29.81h-3.52c-1.52,0-2.76,1.25-2.76,2.76v24.04c0,.1.08.18.18.18h3.52c1.53,0,2.76-1.24,2.76-2.76v-24.04c0-.1-.08-.18-.18-.18ZM400,43.3c0,8.1-6.17,14.2-14.35,14.2s-14.31-6.11-14.31-14.2,6.28-14.2,14.31-14.2,14.35,6.11,14.35,14.2ZM393.37,43.3c0-4.87-3.25-8.4-7.73-8.4s-7.68,3.53-7.68,8.4,3.23,8.4,7.68,8.4,7.73-3.53,7.73-8.4ZM368.49,19.32h-4.38c-1.52,0-2.76,1.24-2.76,2.76v4.38c0,.1.08.18.18.18h4.38c1.53,0,2.76-1.24,2.76-2.76v-4.38c0-.1-.08-.18-.18-.18ZM320.34,32.57v13.39c0,3.6-2.22,5.75-5.94,5.75s-5.9-2.21-5.9-5.75v-13.39c0-1.53-1.24-2.76-2.76-2.76h-3.58c-.1,0-.18.08-.18.18v16.99c0,6.2,5.1,10.53,12.42,10.53s12.41-4.33,12.41-10.53v-16.99c0-.1-.08-.18-.18-.18h-3.52c-1.53,0-2.76,1.24-2.76,2.76ZM272.15,40.2c-.22-.07-.46-.14-.7-.22-2.12-.65-4.33-1.34-4.33-3.23,0-1.52,1.52-2.47,3.95-2.47,1.48,0,2.83.39,4.01,1.14.87.54,1.48,1.09,1.74,1.34.07.07.19.06.25-.02l3.2-3.75c.06-.07.06-.17,0-.24-1.3-1.38-4.25-3.65-9.31-3.65-6.23,0-10.42,3.24-10.42,8.06s4.57,6.95,8.02,8.01c.26.08.52.16.78.24,2.64.8,4.91,1.49,4.91,3.72,0,1.93-1.67,3.08-4.46,3.08-3.44,0-5.84-1.95-7.18-3.53-.07-.08-.19-.08-.26,0l-3.32,3.74c-.06.07-.06.17,0,.23.22.25.78.88,1.48,1.52.9.84,1.89,1.46,2.92,1.94,1.61.75,3.73,1.34,6.42,1.34,6.6,0,11.04-3.52,11.04-8.78s-4.51-7.13-8.73-8.47ZM299.06,51.31s-.13.03-.13.03c-1.23.31-2.3.46-3.28.46-1.94,0-2.73-.61-2.73-2.11v-14.21c0-.1.08-.18.18-.18h5.78c.11,0,.18-.08.18-.18v-5.14c0-.1-.07-.18-.18-.18h-5.78c-.1,0-.18-.08-.18-.18v-6.8c0-.1-.07-.18-.18-.18h-3.52c-1.52,0-2.76,1.24-2.76,2.76v4.21c0,.1-.07.18-.18.18h-3.99c-.1,0-.18.08-.18.18v5.14c0,.1.08.18.18.18h3.99c.11,0,.18.08.18.18v15.23c0,4.3,2.64,6.58,7.66,6.58,1.48,0,3.34-.21,4.46-.42.12-.03.37-.08.5-.12.05,0,.09-.04.09-.09v-5.27s-.02-.1-.1-.09ZM148.5,40.2c-.22-.07-.46-.14-.7-.22-2.12-.65-4.33-1.34-4.33-3.23,0-1.52,1.52-2.47,3.95-2.47,1.48,0,2.83.39,4.01,1.14.87.54,1.48,1.09,1.74,1.34.07.07.19.06.25-.02l3.2-3.75c.06-.07.06-.17,0-.24-1.3-1.38-4.25-3.65-9.31-3.65-6.23,0-10.42,3.24-10.42,8.06s4.57,6.95,8.02,8.01c.26.08.52.16.78.24,2.64.8,4.91,1.49,4.91,3.72,0,1.93-1.67,3.08-4.46,3.08-3.44,0-5.84-1.95-7.18-3.53-.07-.08-.19-.08-.26,0l-3.32,3.74c-.06.07-.06.17,0,.23.22.25.78.88,1.48,1.52.9.84,1.89,1.46,2.92,1.94,1.61.75,3.73,1.34,6.42,1.34,6.6,0,11.04-3.52,11.04-8.78s-4.51-7.13-8.73-8.47ZM175.41,51.31s-.13.03-.13.03c-1.23.31-2.3.46-3.28.46-1.94,0-2.73-.61-2.73-2.11v-14.21c0-.1.08-.18.18-.18h5.78c.11,0,.18-.08.18-.18v-5.14c0-.1-.07-.18-.18-.18h-5.78c-.1,0-.18-.08-.18-.18v-6.8c0-.1-.07-.18-.18-.18h-3.52c-1.52,0-2.76,1.24-2.76,2.76v4.21c0,.1-.07.18-.18.18h-3.99c-.1,0-.18.08-.18.18v5.14c0,.1.08.18.18.18h3.99c.11,0,.18.08.18.18v15.23c0,4.3,2.64,6.58,7.66,6.58,1.48,0,3.34-.21,4.46-.42.12-.03.37-.08.5-.12.05,0,.09-.04.09-.09v-5.27s-.02-.1-.1-.09Z"/>
  <g>
    <path class="st0" d="M51.77,39.98c0,1.36-.53,2.63-1.49,3.59l-6.71,6.71c-.96.96-2.23,1.49-3.59,1.49s-2.64-.53-3.6-1.49l-6.7-6.71c-.97-.96-1.49-2.23-1.49-3.59s.52-2.64,1.49-3.6l6.7-6.7c.96-.96,2.24-1.49,3.6-1.49s2.63.53,3.59,1.49l6.71,6.7c.96.96,1.49,2.24,1.49,3.6Z"/>
    <path class="st0" d="M26.54,68.63l9.84,9.84c.96.97,2.24,1.49,3.6,1.49s2.63-.52,3.59-1.49l9.84-9.84c.12-.12.04-.32-.13-.32h-26.61c-.17,0-.25.2-.13.32Z"/>
    <path class="st0" d="M68.63,53.42l9.84-9.84c.97-.96,1.49-2.24,1.49-3.6s-.52-2.63-1.49-3.59l-9.84-9.84c-.12-.12-.32-.04-.32.13v26.61c0,.17.2.25.32.13Z"/>
    <path class="st0" d="M54.53,53.42l9.84-9.84c.97-.96,1.49-2.24,1.49-3.6s-.52-2.63-1.49-3.59l-9.84-9.84c-.12-.12-.32-.04-.32.13v26.61c0,.17.2.25.32.13Z"/>
    <path class="st0" d="M25.43,26.54l-9.84,9.84c-.97.96-1.49,2.24-1.49,3.6s.52,2.63,1.49,3.59l9.84,9.84c.12.12.32.04.32-.13v-26.61c0-.17-.2-.25-.32-.13Z"/>
    <path class="st0" d="M11.33,26.54L1.49,36.38c-.97.96-1.49,2.24-1.49,3.6s.52,2.63,1.49,3.59l9.84,9.84c.12.12.32.04.32-.13v-26.61c0-.17-.2-.25-.32-.13Z"/>
    <path class="st0" d="M26.54,54.53l9.84,9.84c.96.97,2.24,1.49,3.6,1.49s2.63-.52,3.59-1.49l9.84-9.84c.12-.12.04-.32-.13-.32h-26.61c-.17,0-.25.2-.13.32Z"/>
    <path class="st0" d="M53.42,25.43l-9.84-9.84c-.96-.97-2.24-1.49-3.6-1.49s-2.63.52-3.59,1.49l-9.84,9.84c-.12.12-.04.32.13.32h26.61c.17,0,.25-.2.13-.32Z"/>
    <path class="st0" d="M53.42,11.33L43.57,1.49c-.96-.97-2.24-1.49-3.6-1.49s-2.63.52-3.59,1.49l-9.84,9.84c-.12.12-.04.32.13.32h26.61c.17,0,.25-.2.13-.32Z"/>
    <path class="st0" d="M54.39,11.93h8.55c2.81,0,5.09,2.28,5.09,5.09v8.55c0,.1-.09.19-.19.19h-8.55c-2.81,0-5.09-2.28-5.09-5.09v-8.55c0-.1.09-.19.19-.19Z"/>
    <path class="st0" d="M54.39,54.2h8.55c2.81,0,5.09,2.28,5.09,5.09v8.55c0,.1-.09.19-.19.19h-8.55c-2.81,0-5.09-2.28-5.09-5.09v-8.55c0-.1.09-.19.19-.19Z" transform="translate(122.23 0) rotate(90)"/>
    <path class="st0" d="M12.12,54.2h8.55c2.81,0,5.09,2.28,5.09,5.09v8.55c0,.1-.09.19-.19.19h-8.55c-2.81,0-5.09-2.28-5.09-5.09v-8.55c0-.1.09-.19.19-.19Z" transform="translate(37.68 122.23) rotate(180)"/>
    <path class="st0" d="M12.12,11.93h8.55c2.81,0,5.09,2.28,5.09,5.09v8.55c0,.1-.09.19-.19.19h-8.55c-2.81,0-5.09-2.28-5.09-5.09v-8.55c0-.1.09-.19.19-.19Z" transform="translate(0 37.68) rotate(-90)"/>
  </g>
</svg>