<?xml version="1.0" encoding="UTF-8"?>
<svg id="Layer_2" xmlns="http://www.w3.org/2000/svg" version="1.1" viewBox="0 0 120 120">
  <!-- Generator: Adobe Illustrator 30.1.0, SVG Export Plug-In . SVG Version: 2.1.1 Build 136)  -->
  <defs>
    <style>
      .st0 {
        fill: #262424;
      }
    </style>
  </defs>
  <path class="st0" d="M77.7,60c0,2.04-.8,3.95-2.24,5.39l-10.08,10.08c-1.44,1.44-3.35,2.24-5.39,2.24s-3.96-.8-5.4-2.24l-10.06-10.08c-1.45-1.44-2.24-3.35-2.24-5.39s.78-3.96,2.24-5.4l10.06-10.06c1.44-1.44,3.36-2.24,5.4-2.24s3.95.8,5.39,2.24l10.08,10.06c1.44,1.44,2.24,3.36,2.24,5.4Z"/>
  <path class="st0" d="M39.83,103l14.78,14.76c1.44,1.45,3.36,2.24,5.4,2.24s3.95-.78,5.39-2.24l14.78-14.76c.18-.18.05-.49-.2-.49h-39.94c-.25,0-.38.31-.2.49Z"/>
  <path class="st0" d="M103,80.17l14.76-14.78c1.45-1.44,2.24-3.36,2.24-5.4s-.78-3.95-2.24-5.39l-14.76-14.78c-.18-.18-.49-.05-.49.2v39.94c0,.25.31.38.49.2Z"/>
  <path class="st0" d="M81.84,80.17l14.76-14.78c1.45-1.44,2.24-3.36,2.24-5.4s-.78-3.95-2.24-5.39l-14.76-14.78c-.18-.18-.49-.05-.49.2v39.94c0,.25.31.38.49.2Z"/>
  <path class="st0" d="M38.16,39.83l-14.76,14.78c-1.45,1.44-2.24,3.36-2.24,5.4s.78,3.95,2.24,5.39l14.76,14.78c.18.18.49.05.49-.2v-39.94c0-.25-.31-.38-.49-.2Z"/>
  <path class="st0" d="M17,39.83l-14.76,14.78C.78,56.05,0,57.97,0,60.01s.78,3.95,2.24,5.39l14.76,14.78c.18.18.49.05.49-.2v-39.94c0-.25-.31-.38-.49-.2Z"/>
  <path class="st0" d="M39.83,81.84l14.78,14.76c1.44,1.45,3.36,2.24,5.4,2.24s3.95-.78,5.39-2.24l14.78-14.76c.18-.18.05-.49-.2-.49h-39.94c-.25,0-.38.31-.2.49Z"/>
  <path class="st0" d="M80.17,38.16l-14.78-14.76c-1.44-1.45-3.36-2.24-5.4-2.24s-3.95.78-5.39,2.24l-14.78,14.76c-.18.18-.05.49.2.49h39.94c.25,0,.38-.31.2-.49Z"/>
  <path class="st0" d="M80.17,17l-14.78-14.76C63.95.78,62.03,0,59.99,0s-3.95.78-5.39,2.24l-14.78,14.76c-.18.18-.05.49.2.49h39.94c.25,0,.38-.31.2-.49Z"/>
  <path class="st0" d="M81.64,17.9h12.83c4.22,0,7.64,3.42,7.64,7.64v12.83c0,.16-.13.29-.29.29h-12.83c-4.22,0-7.64-3.42-7.64-7.64v-12.83c0-.16.13-.29.29-.29Z"/>
  <path class="st0" d="M81.64,81.35h12.83c4.22,0,7.64,3.42,7.64,7.64v12.83c0,.16-.13.29-.29.29h-12.83c-4.22,0-7.64-3.42-7.64-7.64v-12.83c0-.16.13-.29.29-.29Z" transform="translate(183.45 0) rotate(90)"/>
  <path class="st0" d="M18.18,81.35h12.83c4.22,0,7.64,3.42,7.64,7.64v12.83c0,.16-.13.29-.29.29h-12.83c-4.22,0-7.64-3.42-7.64-7.64v-12.83c0-.16.13-.29.29-.29Z" transform="translate(56.55 183.45) rotate(180)"/>
  <path class="st0" d="M18.18,17.9h12.83c4.22,0,7.64,3.42,7.64,7.64v12.83c0,.16-.13.29-.29.29h-12.83c-4.22,0-7.64-3.42-7.64-7.64v-12.83c0-.16.13-.29.29-.29Z" transform="translate(0 56.55) rotate(-90)"/>
</svg>