<?xml version="1.0" encoding="UTF-8"?>
<svg id="Layer_2" xmlns="http://www.w3.org/2000/svg" version="1.1" viewBox="0 0 400 79.37">
  <!-- Generator: Adobe Illustrator 30.1.0, SVG Export Plug-In . SVG Version: 2.1.1 Build 136)  -->
  <defs>
    <style>
      .st0 {
        fill: #f8f7f4;
      }
    </style>
  </defs>
  <path class="st0" d="M104.91,29.72c.11,0,.2.09.2.2v23.84c0,1.4-1.14,2.55-2.54,2.55l-3.29.03c-.11,0-.2-.09-.2-.2v-23.87c0-1.4,1.15-2.55,2.55-2.55h3.28ZM123.29,29.06c-4.37,0-6.89,2.1-8.24,3.87l-.38.5v-3.53c0-.11-.09-.2-.2-.2l-3.04.03c-1.4,0-2.54,1.15-2.54,2.55v23.87c0,.11.09.2.2.2l3.34-.03c1.41,0,2.55-1.15,2.55-2.55v-12.08c0-4.47,2.45-7.14,6.57-7.14,3.83,0,5.76,2.37,5.76,7.04v14.56c0,.11.09.2.2.2l3.35-.03c1.4,0,2.55-1.15,2.55-2.55v-13.56c0-7.08-3.7-11.15-10.12-11.15ZM204.34,29.72c.11,0,.2.09.2.2v23.84c0,1.4-1.15,2.55-2.55,2.55l-2.99.03c-.11,0-.2-.09-.2-.2v-3.95l-.39.58c-1.73,2.59-5.3,4.27-9.06,4.27-7.43,0-13.03-6.05-13.03-14.07s5.6-13.96,13.03-13.96c3.6,0,6.95,1.51,8.76,3.96l.38.51v-1.2c0-1.4,1.15-2.55,2.55-2.55h3.3ZM198.64,43.07c0-5.03-3.36-8.67-8-8.67s-8.01,3.65-8.01,8.67,3.36,8.62,8.01,8.62,8-3.63,8-8.62ZM222.39,29.06c-4.38,0-6.9,2.1-8.24,3.87l-.38.5v-3.53c0-.11-.09-.2-.2-.2l-3.04.03c-1.41,0-2.55,1.15-2.55,2.55v23.87c0,.11.09.2.2.2l3.34-.03c1.41,0,2.55-1.15,2.55-2.55v-12.08c0-4.47,2.46-7.14,6.58-7.14,3.82,0,5.76,2.37,5.76,7.04v14.53c0,.11.09.2.2.2h3.34c1.4,0,2.55-1.15,2.55-2.55v-13.56c0-7.08-3.69-11.15-10.11-11.15ZM101.19,19.22c-1.4,0-2.55,1.15-2.55,2.55v4.19c0,.11.09.2.2.2l4.16-.04c1.4,0,2.54-1.14,2.54-2.55v-4.16c0-.11-.09-.2-.2-.2h-4.16ZM247.15,51.75c-2.06,0-2.94-.7-2.94-2.32v-14.23c0-.22.17-.39.39-.39h5.59c.11,0,.2-.09.2-.2l-.03-4.72c0-.11-.09-.2-.2-.2l-5.56.04c-.22,0-.39-.17-.39-.39v-6.81l-3.49.03c-1.41,0-2.55,1.14-2.55,2.55v4.23c0,.22-.17.39-.39.39h-3.79c-.11,0-.2.09-.2.2l.03,4.71c0,.11.09.2.2.2l3.76-.03c.22,0,.39.17.39.39v15.25c0,4.18,2.57,6.38,7.45,6.38,1.47,0,3.34-.21,4.43-.42l.15-.03c.08-.02.19-.05.27-.06v-4.78c0-.13-.12-.22-.25-.19-1.11.27-2.11.4-3.05.4ZM357.54,19.22c.11,0,.2.09.2.2v34.35c0,1.4-1.15,2.55-2.55,2.55l-2.99.03c-.11,0-.2-.09-.2-.2v-3.94l-.39.58c-1.73,2.58-5.28,4.26-9.04,4.26-7.44,0-13.05-6.05-13.05-14.07s5.61-13.96,13.05-13.96c3.59,0,6.94,1.51,8.75,3.96l.38.51v-11.71c0-1.4,1.15-2.55,2.55-2.55h3.29ZM351.84,43.07c0-5.03-3.36-8.67-8.01-8.67s-8,3.65-8,8.67,3.36,8.62,8,8.62,8.01-3.63,8.01-8.62ZM364.69,29.72c-1.4,0-2.55,1.15-2.55,2.55v23.87c0,.11.09.2.2.2l3.29-.03c1.41,0,2.55-1.15,2.55-2.55v-23.84c0-.11-.09-.2-.2-.2h-3.29ZM400,43.03c0,7.98-6.09,14.01-14.17,14.01s-14.12-6.03-14.12-14.01,6.2-14.02,14.12-14.02,14.17,6.03,14.17,14.02ZM393.78,43.03c0-5.01-3.34-8.63-7.95-8.63s-7.9,3.63-7.9,8.63,3.32,8.62,7.9,8.62,7.95-3.63,7.95-8.62ZM364.26,19.22c-1.4,0-2.55,1.15-2.55,2.55v4.19c0,.11.09.2.2.2l4.15-.04c1.41,0,2.55-1.14,2.55-2.55v-4.16c0-.11-.09-.2-.2-.2h-4.16ZM323.2,29.72c-1.41,0-2.55,1.15-2.55,2.55v13.41c0,3.74-2.3,5.97-6.17,5.97s-6.12-2.29-6.12-5.97v-13.41c0-1.4-1.15-2.55-2.55-2.55h-3.37c-.11,0-.2.09-.2.2l.03,16.78c0,6.08,5.03,10.32,12.22,10.32s12.22-4.25,12.22-10.32v-16.81c0-.11-.09-.2-.2-.2l-3.29.03ZM272.11,40.12c-.22-.07-.45-.14-.69-.21-2.21-.68-4.5-1.38-4.5-3.43,0-1.66,1.6-2.69,4.18-2.69,1.52,0,2.91.4,4.13,1.17.73.46,1.29.93,1.59,1.2.08.08.21.06.28-.02l2.93-3.43c.07-.08.07-.2,0-.27-1.31-1.31-4.16-3.42-9.04-3.42-6.11,0-10.21,3.16-10.21,7.86s4.5,6.78,7.87,7.82l.78.24c2.61.79,5.08,1.53,5.08,3.93,0,2.07-1.75,3.3-4.69,3.3-3.56,0-5.97-2.05-7.18-3.41-.08-.09-.21-.09-.29,0l-3.02,3.4c-.07.08-.07.19,0,.27.26.26.74.78,1.32,1.33.83.76,1.77,1.39,2.87,1.9,1.87.88,4.01,1.32,6.34,1.32,6.49,0,10.85-3.44,10.85-8.58s-4.44-6.95-8.6-8.28ZM295.7,51.75c-2.06,0-2.94-.7-2.94-2.32v-14.22c0-.22.18-.4.4-.4h5.59c.11,0,.2-.09.2-.2l-.03-4.72c0-.11-.09-.2-.2-.2l-5.56.04c-.22,0-.4-.18-.4-.4v-6.8l-3.49.03c-1.4,0-2.54,1.14-2.54,2.55v4.22c0,.22-.18.4-.4.4h-3.79c-.11,0-.2.09-.2.2l.04,4.71c0,.11.09.2.2.2l3.76-.03c.22,0,.4.18.4.4v15.24c0,4.18,2.57,6.38,7.45,6.38,1.47,0,3.33-.21,4.43-.42l.14-.03c.09-.02.19-.05.27-.06v-4.78c0-.13-.12-.22-.25-.19-1.1.27-2.1.4-3.06.4ZM148.28,40.12c-.22-.07-.45-.14-.69-.21-2.21-.68-4.49-1.38-4.49-3.43,0-1.66,1.59-2.69,4.17-2.69,1.53,0,2.91.4,4.14,1.17.73.46,1.28.93,1.59,1.21.08.07.21.06.28-.02l2.92-3.44c.07-.08.07-.19,0-.27-1.31-1.31-4.15-3.42-9.03-3.42-6.12,0-10.22,3.16-10.22,7.86s4.5,6.78,7.88,7.82l.78.24c2.6.79,5.07,1.53,5.07,3.93,0,2.07-1.75,3.3-4.69,3.3-3.56,0-5.97-2.05-7.18-3.41-.08-.09-.21-.09-.29,0l-3.02,3.4c-.07.08-.07.19,0,.27.26.26.74.78,1.32,1.33.83.76,1.77,1.39,2.87,1.9,1.88.88,4.02,1.32,6.34,1.32,6.49,0,10.85-3.44,10.85-8.58s-4.44-6.95-8.6-8.28ZM171.88,51.75c-2.06,0-2.94-.7-2.94-2.32v-14.23c0-.22.18-.39.39-.39h5.6c.11,0,.2-.09.2-.2l-.04-4.72c0-.11-.09-.2-.2-.2l-5.56.04c-.21,0-.39-.18-.39-.4v-6.6c0-.11-.09-.2-.2-.2l-3.29.03c-1.4,0-2.55,1.14-2.55,2.55v4.23c0,.22-.17.39-.39.39h-3.79c-.11,0-.2.09-.2.2l.04,4.71c0,.11.09.2.2.2l3.76-.03c.22,0,.39.17.39.39v15.25c0,4.18,2.58,6.38,7.46,6.38,1.47,0,3.33-.21,4.42-.42l.15-.03c.09-.02.19-.04.27-.06v-4.78c0-.13-.12-.22-.25-.19-1.11.27-2.11.4-3.05.4Z"/>
  <g>
    <path class="st0" d="M51.25,39.68c0,1.3-.51,2.53-1.43,3.45l-6.7,6.69c-.91.92-2.13,1.43-3.44,1.43s-2.54-.51-3.45-1.43l-6.69-6.69c-.92-.92-1.43-2.15-1.43-3.45,0-1.3.51-2.52,1.43-3.44l6.69-6.7c.92-.92,2.15-1.43,3.45-1.43s2.52.51,3.44,1.43l6.7,6.7c.92.92,1.43,2.14,1.43,3.44Z"/>
    <path class="st0" d="M25.29,52.61c0,.12-.14.18-.23.09l-9.58-9.58c-.92-.92-1.43-2.15-1.43-3.45s.51-2.53,1.43-3.44l9.58-9.59c.08-.08.23-.02.23.09v25.86Z"/>
    <path class="st0" d="M11.23,52.61c0,.12-.14.18-.23.09L1.43,43.13C.51,42.21,0,40.99,0,39.68s.51-2.53,1.43-3.44l9.58-9.59c.08-.08.23-.02.23.09v25.86Z"/>
    <path class="st0" d="M54.08,52.61c0,.12.14.18.23.09l9.58-9.58c.92-.92,1.43-2.15,1.43-3.45s-.51-2.53-1.43-3.44l-9.58-9.59c-.08-.08-.23-.02-.23.09v25.86Z"/>
    <path class="st0" d="M68.14,52.61c0,.12.14.18.23.09l9.58-9.58c.92-.92,1.43-2.15,1.43-3.45s-.51-2.53-1.43-3.44l-9.58-9.59c-.08-.08-.23-.02-.23.09v25.86Z"/>
    <path class="st0" d="M26.75,25.29c-.12,0-.18-.14-.09-.23l9.58-9.58c.92-.92,2.15-1.43,3.45-1.43s2.53.51,3.44,1.43l9.59,9.58c.08.08.02.23-.09.23h-25.86Z"/>
    <path class="st0" d="M26.75,11.23c-.12,0-.18-.14-.09-.23L36.23,1.43C37.15.51,38.38,0,39.68,0s2.53.51,3.44,1.43l9.59,9.58c.08.08.02.23-.09.23h-25.86Z"/>
    <path class="st0" d="M26.75,54.08c-.12,0-.18.14-.09.23l9.58,9.58c.92.92,2.15,1.43,3.45,1.43s2.53-.51,3.44-1.43l9.59-9.58c.08-.08.02-.23-.09-.23h-25.86Z"/>
    <path class="st0" d="M26.75,68.14c-.12,0-.18.14-.09.23l9.58,9.58c.92.92,2.15,1.43,3.45,1.43s2.53-.51,3.44-1.43l9.59-9.58c.08-.08.02-.23-.09-.23h-25.86Z"/>
    <path class="st0" d="M54.21,11.9h8.38c2.69,0,4.88,2.19,4.88,4.88v8.38c0,.07-.06.13-.13.13h-8.38c-2.69,0-4.88-2.19-4.88-4.88v-8.38c0-.07.06-.13.13-.13Z"/>
    <path class="st0" d="M16.77,11.9h8.38c.07,0,.13.06.13.13v8.38c0,2.69-2.19,4.88-4.88,4.88h-8.38c-.07,0-.13-.06-.13-.13v-8.38c0-2.69,2.19-4.88,4.88-4.88Z" transform="translate(37.18 37.18) rotate(-180)"/>
    <path class="st0" d="M58.96,54.08h8.38c.07,0,.13.06.13.13v8.38c0,2.69-2.19,4.88-4.88,4.88h-8.38c-.07,0-.13-.06-.13-.13v-8.38c0-2.69,2.19-4.88,4.88-4.88Z" transform="translate(121.55 121.55) rotate(-180)"/>
    <path class="st0" d="M16.77,54.08h8.38c.07,0,.13.06.13.13v8.38c0,2.69-2.19,4.88-4.88,4.88h-8.38c-.07,0-.13-.06-.13-.13v-8.38c0-2.69,2.19-4.88,4.88-4.88Z" transform="translate(-42.18 79.37) rotate(-90)"/>
  </g>
</svg>