<?xml version="1.0" encoding="UTF-8"?>
<svg id="Layer_2" xmlns="http://www.w3.org/2000/svg" version="1.1" viewBox="0 0 120 120">
  <!-- Generator: Adobe Illustrator 30.1.0, SVG Export Plug-In . SVG Version: 2.1.1 Build 136)  -->
  <defs>
    <style>
      .st0 {
        fill: #f8f7f4;
      }
    </style>
  </defs>
  <path class="st0" d="M77.49,60c0,1.97-.77,3.82-2.16,5.22l-10.13,10.11c-1.38,1.39-3.23,2.16-5.2,2.16-1.98,0-3.84-.77-5.21-2.16l-10.12-10.11c-1.39-1.39-2.16-3.25-2.16-5.22,0-1.96.77-3.81,2.16-5.2l10.11-10.13c1.39-1.39,3.25-2.16,5.22-2.16,1.96,0,3.81.77,5.2,2.16l10.13,10.13c1.39,1.39,2.16,3.24,2.16,5.2Z"/>
  <path class="st0" d="M38.23,79.55c0,.18-.22.27-.34.14l-14.48-14.48c-1.39-1.39-2.16-3.24-2.16-5.22,0-1.97.77-3.82,2.16-5.2l14.48-14.49c.13-.13.34-.04.34.14v39.1Z"/>
  <path class="st0" d="M16.98,79.55c0,.18-.22.27-.34.14l-14.48-14.48C.77,63.82,0,61.97,0,60c0-1.97.77-3.82,2.16-5.2l14.48-14.49c.13-.13.34-.04.34.14v39.1Z"/>
  <path class="st0" d="M81.77,79.55c0,.18.22.27.34.14l14.48-14.48c1.39-1.39,2.16-3.24,2.16-5.22,0-1.97-.77-3.82-2.16-5.2l-14.48-14.49c-.13-.13-.34-.04-.34.14v39.1Z"/>
  <path class="st0" d="M103.02,79.55c0,.18.22.27.34.14l14.48-14.48c1.39-1.39,2.16-3.24,2.16-5.22s-.77-3.82-2.16-5.2l-14.48-14.49c-.13-.13-.34-.04-.34.14v39.1Z"/>
  <path class="st0" d="M40.45,38.23c-.18,0-.27-.22-.14-.34l14.48-14.48c1.39-1.39,3.24-2.16,5.22-2.16s3.82.77,5.2,2.16l14.49,14.48c.13.13.04.34-.14.34h-39.1Z"/>
  <path class="st0" d="M40.45,16.98c-.18,0-.27-.22-.14-.34l14.48-14.48C56.18.77,58.03,0,60,0s3.82.77,5.2,2.16l14.49,14.48c.13.13.04.34-.14.34h-39.1Z"/>
  <path class="st0" d="M40.45,81.77c-.18,0-.27.22-.14.34l14.48,14.48c1.39,1.39,3.24,2.16,5.22,2.16s3.82-.77,5.2-2.16l14.49-14.48c.13-.13.04-.34-.14-.34h-39.1Z"/>
  <path class="st0" d="M40.45,103.02c-.18,0-.27.22-.14.34l14.48,14.48c1.39,1.39,3.24,2.16,5.22,2.16,1.97,0,3.82-.77,5.2-2.16l14.49-14.48c.13-.13.04-.34-.14-.34h-39.1Z"/>
  <path class="st0" d="M81.97,17.99h12.67c4.07,0,7.37,3.3,7.37,7.37v12.67c0,.11-.09.2-.2.2h-12.67c-4.07,0-7.37-3.3-7.37-7.37v-12.67c0-.11.09-.2.2-.2Z"/>
  <path class="st0" d="M25.36,17.99h12.67c.11,0,.2.09.2.2v12.67c0,4.07-3.3,7.37-7.37,7.37h-12.67c-.11,0-.2-.09-.2-.2v-12.67c0-4.07,3.3-7.37,7.37-7.37Z" transform="translate(56.22 56.22) rotate(-180)"/>
  <path class="st0" d="M89.14,81.77h12.67c.11,0,.2.09.2.2v12.67c0,4.07-3.3,7.37-7.37,7.37h-12.67c-.11,0-.2-.09-.2-.2v-12.67c0-4.07,3.3-7.37,7.37-7.37Z" transform="translate(183.78 183.78) rotate(-180)"/>
  <path class="st0" d="M25.36,81.77h12.67c.11,0,.2.09.2.2v12.67c0,4.07-3.3,7.37-7.37,7.37h-12.67c-.11,0-.2-.09-.2-.2v-12.67c0-4.07,3.3-7.37,7.37-7.37Z" transform="translate(-63.78 120) rotate(-90)"/>
</svg>